<?xml version="1.0" standalone="no"?>
<!DOCTYPE svg PUBLIC "-//W3C//DTD SVG 20010904//EN"
 "http://www.w3.org/TR/2001/REC-SVG-20010904/DTD/svg10.dtd">
<svg version="1.0" xmlns="http://www.w3.org/2000/svg"
 width="260.000000pt" height="260.000000pt" viewBox="0 0 260.000000 260.000000"
 preserveAspectRatio="xMidYMid meet">
<metadata>
Created by potrace 1.14, written by Peter Selinger 2001-2017
</metadata>
<g transform="translate(0.000000,260.000000) scale(0.100000,-0.100000)"
fill="#000000" stroke="none">
<path d="M1195 2590 c-55 -11 -135 -43 -192 -75 -30 -17 -210 -189 -474 -454
-411 -410 -428 -429 -467 -508 -87 -177 -80 -371 23 -549 17 -31 182 -204 454
-475 410 -411 429 -428 508 -467 177 -87 371 -80 549 23 31 17 204 182 475
454 411 410 428 429 467 508 87 177 80 371 -23 549 -17 31 -182 203 -454 475
-385 385 -433 429 -498 463 -113 58 -252 79 -368 56z m257 -819 c65 -31 123
-92 142 -148 29 -85 32 -83 -99 -83 -112 0 -116 1 -125 24 -35 92 -190 83
-190 -11 0 -58 22 -72 239 -154 93 -35 164 -91 187 -146 8 -18 14 -61 14 -96
0 -144 -95 -241 -262 -268 -73 -12 -179 2 -247 32 -88 38 -160 132 -161 207
l0 32 115 0 c107 0 115 -1 115 -19 0 -11 10 -32 23 -47 18 -21 35 -28 75 -32
84 -8 134 41 111 107 -14 40 -40 55 -177 102 -127 44 -163 62 -204 106 -76 79
-79 236 -7 318 71 80 145 106 294 102 90 -3 118 -7 157 -26z"/>
</g>
</svg>
